<svg xmlns="http://www.w3.org/2000/svg" viewBox="0 0 349.12 512"><defs><style>.cls-1{fill:#fff;}</style></defs><g id="Layer_2" data-name="Layer 2"><g id="Layer_1-2" data-name="Layer 1"><path class="cls-1" d="M223.12,382a18,18,0,1,1,18-18,18,18,0,0,1-18,18M0,13.39v485.2A13.68,13.68,0,0,0,13.8,512H75.32a13.66,13.66,0,0,0,13.79-13.41V314.8a85.46,85.46,0,1,1,170.91,0V498.59A13.68,13.68,0,0,0,273.81,512H335c7.1,0,14.11-5.1,14.11-12.39V314.8c0-108.83-71.58-166.93-145.54-168-39.53-.57-79.75,13-110.09,48.61-1.82,2.13-4.38,1.16-4.38-1.52V13.39A13.44,13.44,0,0,0,75.86,0H13.26A13.45,13.45,0,0,0,0,13.39Z"/></g></g></svg>