<svg xmlns="http://www.w3.org/2000/svg" viewBox="0 0 512 179.08"><defs><style>.cls-1,.cls-2{fill:#fff;}.cls-2{fill-rule:evenodd;}</style></defs><g id="Layer_2" data-name="Layer 2"><g id="Layer_1-2" data-name="Layer 1"><path class="cls-1" d="M369.23,93.63a4.41,4.41,0,1,1,4.41-4.41,4.42,4.42,0,0,1-4.41,4.41M314.55,3.28V122.2a3.35,3.35,0,0,0,3.38,3.28H333a3.35,3.35,0,0,0,3.38-3.28v-45a20.95,20.95,0,0,1,41.89,0V122.2a3.34,3.34,0,0,0,3.37,3.28h15a3.3,3.3,0,0,0,3.46-3V77.15c0-26.67-17.54-40.91-35.67-41.17-9.69-.14-19.54,3.18-27,11.91-.44.53-1.07.29-1.07-.37V3.28A3.3,3.3,0,0,0,333.14,0H317.8A3.3,3.3,0,0,0,314.55,3.28Z"/><path class="cls-2" d="M143.25,38c-27.32,0-44.37,20.18-44.37,44.72,0,24.71,16.7,44.72,44.54,44.72s44.72-20,44.72-44.72c0-24.54-17.57-44.72-44.89-44.72m.17,19.31c14.27,0,23.32,12.53,23.32,25.41,0,13-7.83,25.23-23.32,25.23s-23.31-12.18-23.31-25.23C120.11,69.8,128.11,57.27,143.42,57.27Zm322.12-.69c16.7,0,25.06,13,25.06,26s-8.36,26-25.06,26c-14.09,0-25.41-9.74-25.41-26.1S451.45,56.58,465.54,56.58Zm24.82,58.84a1.14,1.14,0,0,1,.88,1.07l.52,6a3.26,3.26,0,0,0,3.24,3h13.63a3.28,3.28,0,0,0,3.37-3.19V42.89a3.29,3.29,0,0,0-3.37-3.19h-13.8a3.27,3.27,0,0,0-3.37,3.11l-.32,5.45a1.11,1.11,0,0,1-1.11,1,1.14,1.14,0,0,1-.89-.43s-.88-1.07-1-1.19c-5.6-6.25-14.88-10-24.52-10.07-25.06-.12-44.72,15.31-44.72,44.89,0,30.11,18.79,45.84,44.19,45.59,8.6-.08,20.28-4.08,26.1-12.21A1.13,1.13,0,0,1,490.36,115.42ZM269.86,41.79c-5.92-4-12.88-4.88-19.67-4.88-24,0-43.5,16.71-43.5,43.51s16.71,43.15,43.5,43.15c10.62,0,21.75,5.39,21.75,17.23s-9.56,18.44-21.75,18.44c-11.16,0-20.7-6.15-22.23-15.75a3.33,3.33,0,0,0-3.34-2.69H209.73a3.08,3.08,0,0,0-2.92,3.14c1.58,21.36,19.65,35.14,43.38,35.14,24.89,0,43-14.62,43-38.28,0-11-3.48-21.23-17.74-28.37,14.09-6.44,18.09-21.4,18.09-32,0-9.4-2.43-17.93-9-25.41l7.64-9.72a3.08,3.08,0,0,0-.48-4.29l-10.57-8a3.36,3.36,0,0,0-4.66.49ZM250.19,56.23c12.19,0,22.28,9.39,22.28,24.19s-10.09,23.83-22.28,23.83c-12.35,0-22.44-8.87-22.44-23.83S237.84,56.23,250.19,56.23ZM43.66,98.83,23.92,41.88a3.31,3.31,0,0,0-3.13-2.18H3.37A3.29,3.29,0,0,0,0,42.89a3.41,3.41,0,0,0,.28,1.27l32.11,79.1a1.87,1.87,0,0,1,0,1.65L18.7,156.72a3.35,3.35,0,0,0,2.79,4.61H38a3.06,3.06,0,0,0,2.78-1.79L90.47,44.21a3.37,3.37,0,0,0,.29-1.32,3.29,3.29,0,0,0-3.38-3.19H71.24a3.36,3.36,0,0,0-3.16,2L45.23,98.83C44.88,99.7,44,99.69,43.66,98.83Z"/></g></g></svg>